<svg xmlns="http://www.w3.org/2000/svg" xmlns:xlink="http://www.w3.org/1999/xlink" width="100" zoomAndPan="magnify" viewBox="0 0 75 74.999997" height="100" preserveAspectRatio="xMidYMid meet" version="1.0"><defs><clipPath id="36f5206f88"><path d="M 0 0 L 2.25 0 L 2.25 2.25 L 0 2.25 Z M 0 0 " clip-rule="nonzero"/></clipPath><clipPath id="35cf98c333"><path d="M 0 72.976562 L 2.25 72.976562 L 2.25 75 L 0 75 Z M 0 72.976562 " clip-rule="nonzero"/></clipPath><clipPath id="a06b1b3fa4"><path d="M 72.976562 72.976562 L 75 72.976562 L 75 75 L 72.976562 75 Z M 72.976562 72.976562 " clip-rule="nonzero"/></clipPath><clipPath id="4db468aae7"><path d="M 72.976562 0 L 75 0 L 75 2.25 L 72.976562 2.25 Z M 72.976562 0 " clip-rule="nonzero"/></clipPath></defs><path fill="#f1f2f2" d="M 74.777344 0 L 0.222656 0 C 0.101562 0 0 0.101562 0 0.222656 L 0 74.777344 C 0 74.898438 0.101562 75 0.222656 75 L 74.777344 75 C 74.898438 75 75 74.898438 75 74.777344 L 75 0.222656 C 75 0.101562 74.898438 0 74.777344 0 Z M 34.335938 40.664062 L 34.335938 34.335938 L 40.664062 34.335938 L 40.664062 40.664062 Z M 40.664062 41.113281 L 40.664062 47.441406 L 34.335938 47.441406 L 34.335938 41.113281 Z M 27.558594 34.335938 L 33.886719 34.335938 L 33.886719 40.664062 L 27.558594 40.664062 Z M 27.109375 40.664062 L 20.78125 40.664062 L 20.78125 34.335938 L 27.109375 34.335938 Z M 34.335938 33.886719 L 34.335938 27.558594 L 40.664062 27.558594 L 40.664062 33.886719 Z M 41.113281 34.335938 L 47.441406 34.335938 L 47.441406 40.664062 L 41.113281 40.664062 Z M 47.890625 34.335938 L 54.21875 34.335938 L 54.21875 40.664062 L 47.890625 40.664062 Z M 47.890625 33.886719 L 47.890625 27.558594 L 54.21875 27.558594 L 54.21875 33.886719 Z M 47.441406 33.886719 L 41.113281 33.886719 L 41.113281 27.558594 L 47.441406 27.558594 Z M 41.113281 27.109375 L 41.113281 20.78125 L 47.441406 20.78125 L 47.441406 27.109375 Z M 40.664062 27.109375 L 34.335938 27.109375 L 34.335938 20.78125 L 40.664062 20.78125 Z M 33.886719 27.109375 L 27.558594 27.109375 L 27.558594 20.78125 L 33.886719 20.78125 Z M 33.886719 27.558594 L 33.886719 33.886719 L 27.558594 33.886719 L 27.558594 27.558594 Z M 27.109375 33.886719 L 20.78125 33.886719 L 20.78125 27.558594 L 27.109375 27.558594 Z M 20.332031 33.886719 L 14.003906 33.886719 L 14.003906 27.558594 L 20.332031 27.558594 Z M 20.332031 34.335938 L 20.332031 40.664062 L 14.003906 40.664062 L 14.003906 34.335938 Z M 20.332031 41.113281 L 20.332031 47.441406 L 14.003906 47.441406 L 14.003906 41.113281 Z M 20.78125 41.113281 L 27.109375 41.113281 L 27.109375 47.441406 L 20.78125 47.441406 Z M 27.558594 41.113281 L 33.886719 41.113281 L 33.886719 47.441406 L 27.558594 47.441406 Z M 33.886719 47.890625 L 33.886719 54.21875 L 27.558594 54.21875 L 27.558594 47.890625 Z M 34.335938 47.890625 L 40.664062 47.890625 L 40.664062 54.21875 L 34.335938 54.21875 Z M 41.113281 47.890625 L 47.441406 47.890625 L 47.441406 54.21875 L 41.113281 54.21875 Z M 41.113281 47.441406 L 41.113281 41.113281 L 47.441406 41.113281 L 47.441406 47.441406 Z M 47.890625 41.113281 L 54.21875 41.113281 L 54.21875 47.441406 L 47.890625 47.441406 Z M 54.667969 41.113281 L 60.996094 41.113281 L 60.996094 47.441406 L 54.667969 47.441406 Z M 54.667969 40.664062 L 54.667969 34.335938 L 60.996094 34.335938 L 60.996094 40.664062 Z M 54.667969 33.886719 L 54.667969 27.558594 L 60.996094 27.558594 L 60.996094 33.886719 Z M 54.667969 27.109375 L 54.667969 20.78125 L 60.996094 20.78125 L 60.996094 27.109375 Z M 54.21875 27.109375 L 47.890625 27.109375 L 47.890625 20.78125 L 54.21875 20.78125 Z M 47.890625 20.332031 L 47.890625 14.003906 L 54.21875 14.003906 L 54.21875 20.332031 Z M 47.441406 20.332031 L 41.113281 20.332031 L 41.113281 14.003906 L 47.441406 14.003906 Z M 40.664062 20.332031 L 34.335938 20.332031 L 34.335938 14.003906 L 40.664062 14.003906 Z M 33.886719 20.332031 L 27.558594 20.332031 L 27.558594 14.003906 L 33.886719 14.003906 Z M 27.109375 20.332031 L 20.78125 20.332031 L 20.78125 14.003906 L 27.109375 14.003906 Z M 27.109375 20.78125 L 27.109375 27.109375 L 20.78125 27.109375 L 20.78125 20.78125 Z M 20.332031 27.109375 L 14.003906 27.109375 L 14.003906 20.78125 L 20.332031 20.78125 Z M 13.554688 27.109375 L 7.226562 27.109375 L 7.226562 20.78125 L 13.554688 20.78125 Z M 13.554688 27.558594 L 13.554688 33.886719 L 7.226562 33.886719 L 7.226562 27.558594 Z M 13.554688 34.335938 L 13.554688 40.664062 L 7.226562 40.664062 L 7.226562 34.335938 Z M 13.554688 41.113281 L 13.554688 47.441406 L 7.226562 47.441406 L 7.226562 41.113281 Z M 13.554688 47.890625 L 13.554688 54.21875 L 7.226562 54.21875 L 7.226562 47.890625 Z M 14.003906 47.890625 L 20.332031 47.890625 L 20.332031 54.21875 L 14.003906 54.21875 Z M 20.78125 47.890625 L 27.109375 47.890625 L 27.109375 54.21875 L 20.78125 54.21875 Z M 27.109375 54.667969 L 27.109375 60.996094 L 20.78125 60.996094 L 20.78125 54.667969 Z M 27.558594 54.667969 L 33.886719 54.667969 L 33.886719 60.996094 L 27.558594 60.996094 Z M 34.335938 54.667969 L 40.664062 54.667969 L 40.664062 60.996094 L 34.335938 60.996094 Z M 41.113281 54.667969 L 47.441406 54.667969 L 47.441406 60.996094 L 41.113281 60.996094 Z M 47.890625 54.667969 L 54.21875 54.667969 L 54.21875 60.996094 L 47.890625 60.996094 Z M 47.890625 54.21875 L 47.890625 47.890625 L 54.21875 47.890625 L 54.21875 54.21875 Z M 54.667969 47.890625 L 60.996094 47.890625 L 60.996094 54.21875 L 54.667969 54.21875 Z M 61.445312 47.890625 L 67.773438 47.890625 L 67.773438 54.21875 L 61.445312 54.21875 Z M 61.445312 47.441406 L 61.445312 41.113281 L 67.773438 41.113281 L 67.773438 47.441406 Z M 61.445312 40.664062 L 61.445312 34.335938 L 67.773438 34.335938 L 67.773438 40.664062 Z M 61.445312 33.886719 L 61.445312 27.558594 L 67.773438 27.558594 L 67.773438 33.886719 Z M 61.445312 27.109375 L 61.445312 20.78125 L 67.773438 20.78125 L 67.773438 27.109375 Z M 61.445312 20.332031 L 61.445312 14.003906 L 67.773438 14.003906 L 67.773438 20.332031 Z M 60.996094 20.332031 L 54.667969 20.332031 L 54.667969 14.003906 L 60.996094 14.003906 Z M 54.667969 13.554688 L 54.667969 7.226562 L 60.996094 7.226562 L 60.996094 13.554688 Z M 54.21875 13.554688 L 47.890625 13.554688 L 47.890625 7.226562 L 54.21875 7.226562 Z M 47.441406 13.554688 L 41.113281 13.554688 L 41.113281 7.226562 L 47.441406 7.226562 Z M 40.664062 13.554688 L 34.335938 13.554688 L 34.335938 7.226562 L 40.664062 7.226562 Z M 33.886719 13.554688 L 27.558594 13.554688 L 27.558594 7.226562 L 33.886719 7.226562 Z M 27.109375 13.554688 L 20.78125 13.554688 L 20.78125 7.226562 L 27.109375 7.226562 Z M 20.332031 13.554688 L 14.003906 13.554688 L 14.003906 7.226562 L 20.332031 7.226562 Z M 20.332031 14.003906 L 20.332031 20.332031 L 14.003906 20.332031 L 14.003906 14.003906 Z M 13.554688 20.332031 L 7.226562 20.332031 L 7.226562 14.003906 L 13.554688 14.003906 Z M 6.777344 20.332031 L 0.449219 20.332031 L 0.449219 14.003906 L 6.777344 14.003906 Z M 6.777344 20.78125 L 6.777344 27.109375 L 0.449219 27.109375 L 0.449219 20.78125 Z M 6.777344 27.558594 L 6.777344 33.886719 L 0.449219 33.886719 L 0.449219 27.558594 Z M 6.777344 34.335938 L 6.777344 40.664062 L 0.449219 40.664062 L 0.449219 34.335938 Z M 6.777344 41.113281 L 6.777344 47.441406 L 0.449219 47.441406 L 0.449219 41.113281 Z M 6.777344 47.890625 L 6.777344 54.21875 L 0.449219 54.21875 L 0.449219 47.890625 Z M 6.777344 54.667969 L 6.777344 60.996094 L 0.449219 60.996094 L 0.449219 54.667969 Z M 7.226562 54.667969 L 13.554688 54.667969 L 13.554688 60.996094 L 7.226562 60.996094 Z M 14.003906 54.667969 L 20.332031 54.667969 L 20.332031 60.996094 L 14.003906 60.996094 Z M 20.332031 61.445312 L 20.332031 67.773438 L 14.003906 67.773438 L 14.003906 61.445312 Z M 20.78125 61.445312 L 27.109375 61.445312 L 27.109375 67.773438 L 20.78125 67.773438 Z M 27.558594 61.445312 L 33.886719 61.445312 L 33.886719 67.773438 L 27.558594 67.773438 Z M 34.335938 61.445312 L 40.664062 61.445312 L 40.664062 67.773438 L 34.335938 67.773438 Z M 41.113281 61.445312 L 47.441406 61.445312 L 47.441406 67.773438 L 41.113281 67.773438 Z M 47.890625 61.445312 L 54.21875 61.445312 L 54.21875 67.773438 L 47.890625 67.773438 Z M 54.667969 61.445312 L 60.996094 61.445312 L 60.996094 67.773438 L 54.667969 67.773438 Z M 54.667969 60.996094 L 54.667969 54.667969 L 60.996094 54.667969 L 60.996094 60.996094 Z M 61.445312 54.667969 L 67.773438 54.667969 L 67.773438 60.996094 L 61.445312 60.996094 Z M 68.222656 54.667969 L 74.550781 54.667969 L 74.550781 60.996094 L 68.222656 60.996094 Z M 68.222656 54.21875 L 68.222656 47.890625 L 74.550781 47.890625 L 74.550781 54.21875 Z M 68.222656 47.441406 L 68.222656 41.113281 L 74.550781 41.113281 L 74.550781 47.441406 Z M 68.222656 40.664062 L 68.222656 34.335938 L 74.550781 34.335938 L 74.550781 40.664062 Z M 68.222656 33.886719 L 68.222656 27.558594 L 74.550781 27.558594 L 74.550781 33.886719 Z M 68.222656 27.109375 L 68.222656 20.78125 L 74.550781 20.78125 L 74.550781 27.109375 Z M 68.222656 20.332031 L 68.222656 14.003906 L 74.550781 14.003906 L 74.550781 20.332031 Z M 68.222656 13.554688 L 68.222656 7.226562 L 74.550781 7.226562 L 74.550781 13.554688 Z M 67.773438 13.554688 L 61.445312 13.554688 L 61.445312 7.226562 L 67.773438 7.226562 Z M 61.445312 6.777344 L 61.445312 0.449219 L 67.773438 0.449219 L 67.773438 6.777344 Z M 60.996094 6.777344 L 54.667969 6.777344 L 54.667969 0.449219 L 60.996094 0.449219 Z M 54.21875 6.777344 L 47.890625 6.777344 L 47.890625 0.449219 L 54.21875 0.449219 Z M 47.441406 6.777344 L 41.113281 6.777344 L 41.113281 0.449219 L 47.441406 0.449219 Z M 40.664062 6.777344 L 34.335938 6.777344 L 34.335938 0.449219 L 40.664062 0.449219 Z M 33.886719 6.777344 L 27.558594 6.777344 L 27.558594 0.449219 L 33.886719 0.449219 Z M 27.109375 6.777344 L 20.78125 6.777344 L 20.78125 0.449219 L 27.109375 0.449219 Z M 20.332031 6.777344 L 14.003906 6.777344 L 14.003906 0.449219 L 20.332031 0.449219 Z M 13.554688 6.777344 L 7.226562 6.777344 L 7.226562 0.449219 L 13.554688 0.449219 Z M 13.554688 7.226562 L 13.554688 13.554688 L 7.226562 13.554688 L 7.226562 7.226562 Z M 6.777344 13.554688 L 0.449219 13.554688 L 0.449219 7.226562 L 6.777344 7.226562 Z M 0.449219 61.445312 L 6.777344 61.445312 L 6.777344 67.773438 L 0.449219 67.773438 Z M 7.226562 61.445312 L 13.554688 61.445312 L 13.554688 67.773438 L 7.226562 67.773438 Z M 13.554688 68.222656 L 13.554688 74.550781 L 7.226562 74.550781 L 7.226562 68.222656 Z M 14.003906 68.222656 L 20.332031 68.222656 L 20.332031 74.550781 L 14.003906 74.550781 Z M 20.78125 68.222656 L 27.109375 68.222656 L 27.109375 74.550781 L 20.78125 74.550781 Z M 27.558594 68.222656 L 33.886719 68.222656 L 33.886719 74.550781 L 27.558594 74.550781 Z M 34.335938 68.222656 L 40.664062 68.222656 L 40.664062 74.550781 L 34.335938 74.550781 Z M 41.113281 68.222656 L 47.441406 68.222656 L 47.441406 74.550781 L 41.113281 74.550781 Z M 47.890625 68.222656 L 54.21875 68.222656 L 54.21875 74.550781 L 47.890625 74.550781 Z M 54.667969 68.222656 L 60.996094 68.222656 L 60.996094 74.550781 L 54.667969 74.550781 Z M 61.445312 68.222656 L 67.773438 68.222656 L 67.773438 74.550781 L 61.445312 74.550781 Z M 61.445312 67.773438 L 61.445312 61.445312 L 67.773438 61.445312 L 67.773438 67.773438 Z M 68.222656 61.445312 L 74.550781 61.445312 L 74.550781 67.773438 L 68.222656 67.773438 Z M 74.550781 6.777344 L 68.222656 6.777344 L 68.222656 0.449219 L 74.550781 0.449219 Z M 6.777344 0.449219 L 6.777344 6.777344 L 0.449219 6.777344 L 0.449219 0.449219 Z M 0.449219 68.222656 L 6.777344 68.222656 L 6.777344 74.550781 L 0.449219 74.550781 Z M 68.222656 74.550781 L 68.222656 68.222656 L 74.550781 68.222656 L 74.550781 74.550781 Z M 68.222656 74.550781 " fill-opacity="1" fill-rule="nonzero"/><g clip-path="url(#36f5206f88)"><path fill="#f1f2f2" d="M 0.015625 0.015625 L 2.234375 0.015625 L 2.234375 2.234375 L 0.015625 2.234375 Z M 0.015625 0.015625 " fill-opacity="1" fill-rule="nonzero"/><path fill="#f1f2f2" d="M 2.234375 2.25 L 0.015625 2.25 C 0.0078125 2.25 0 2.242188 0 2.234375 L 0 0.015625 C 0 0.0078125 0.0078125 0 0.015625 0 L 2.234375 0 C 2.242188 0 2.25 0.0078125 2.25 0.015625 L 2.25 2.234375 C 2.25 2.242188 2.242188 2.25 2.234375 2.25 Z M 0.03125 2.21875 L 2.21875 2.21875 L 2.21875 0.03125 L 0.03125 0.03125 Z M 0.03125 2.21875 " fill-opacity="1" fill-rule="nonzero"/></g><g clip-path="url(#35cf98c333)"><path fill="#f1f2f2" d="M 0.015625 72.988281 L 2.234375 72.988281 L 2.234375 75.210938 L 0.015625 75.210938 Z M 0.015625 72.988281 " fill-opacity="1" fill-rule="nonzero"/><path fill="#f1f2f2" d="M 2.234375 75.226562 L 0.015625 75.226562 C 0.0078125 75.226562 0 75.21875 0 75.210938 L 0 72.988281 C 0 72.980469 0.0078125 72.976562 0.015625 72.976562 L 2.234375 72.976562 C 2.242188 72.976562 2.25 72.980469 2.25 72.988281 L 2.25 75.210938 C 2.25 75.21875 2.242188 75.226562 2.234375 75.226562 Z M 0.03125 75.195312 L 2.21875 75.195312 L 2.21875 73.003906 L 0.03125 73.003906 Z M 0.03125 75.195312 " fill-opacity="1" fill-rule="nonzero"/></g><g clip-path="url(#a06b1b3fa4)"><path fill="#f1f2f2" d="M 72.988281 72.988281 L 75.210938 72.988281 L 75.210938 75.210938 L 72.988281 75.210938 Z M 72.988281 72.988281 " fill-opacity="1" fill-rule="nonzero"/><path fill="#f1f2f2" d="M 75.210938 75.226562 L 72.988281 75.226562 C 72.980469 75.226562 72.976562 75.21875 72.976562 75.210938 L 72.976562 72.988281 C 72.976562 72.980469 72.980469 72.976562 72.988281 72.976562 L 75.210938 72.976562 C 75.21875 72.976562 75.226562 72.980469 75.226562 72.988281 L 75.226562 75.210938 C 75.226562 75.21875 75.21875 75.226562 75.210938 75.226562 Z M 73.003906 75.195312 L 75.195312 75.195312 L 75.195312 73.003906 L 73.003906 73.003906 Z M 73.003906 75.195312 " fill-opacity="1" fill-rule="nonzero"/></g><g clip-path="url(#4db468aae7)"><path fill="#f1f2f2" d="M 72.988281 0.015625 L 75.210938 0.015625 L 75.210938 2.234375 L 72.988281 2.234375 Z M 72.988281 0.015625 " fill-opacity="1" fill-rule="nonzero"/><path fill="#f1f2f2" d="M 75.210938 2.25 L 72.988281 2.25 C 72.980469 2.25 72.976562 2.242188 72.976562 2.234375 L 72.976562 0.015625 C 72.976562 0.0078125 72.980469 0 72.988281 0 L 75.210938 0 C 75.21875 0 75.226562 0.0078125 75.226562 0.015625 L 75.226562 2.234375 C 75.226562 2.242188 75.21875 2.25 75.210938 2.25 Z M 73.003906 2.21875 L 75.195312 2.21875 L 75.195312 0.03125 L 73.003906 0.03125 Z M 73.003906 2.21875 " fill-opacity="1" fill-rule="nonzero"/></g></svg>