<svg xmlns="http://www.w3.org/2000/svg" xmlns:xlink="http://www.w3.org/1999/xlink" width="94" zoomAndPan="magnify" viewBox="0 0 70.5 74.999997" height="100" preserveAspectRatio="xMidYMid meet" version="1.0"><defs><filter x="0%" y="0%" width="100%" height="100%" id="de3c02d62d"><feColorMatrix values="0 0 0 0 1 0 0 0 0 1 0 0 0 0 1 0 0 0 1 0" color-interpolation-filters="sRGB"/></filter><clipPath id="d0465e9872"><path d="M 0 0.265625 L 70.003906 0.265625 L 70.003906 74.734375 L 0 74.734375 Z M 0 0.265625 " clip-rule="nonzero"/></clipPath><mask id="5315cefd41"><g filter="url(#de3c02d62d)"><rect x="-7.05" width="84.6" fill="#000000" y="-7.5" height="89.999996" fill-opacity="0.498"/></g></mask><clipPath id="cededa71b8"><path d="M 0 0.265625 L 70.003906 0.265625 L 70.003906 74.734375 L 0 74.734375 Z M 0 0.265625 " clip-rule="nonzero"/></clipPath><clipPath id="d41fa1c048"><rect x="0" width="71" y="0" height="75"/></clipPath></defs><g clip-path="url(#d0465e9872)"><g mask="url(#5315cefd41)"><g transform="matrix(1, 0, 0, 1, 0, 0.000000000000014821)"><g clip-path="url(#d41fa1c048)"><g clip-path="url(#cededa71b8)"><path fill="#ffffff" d="M 70.496094 5.527344 L 69.914062 4.945312 L 69.914062 1.503906 L 70.496094 0.921875 L 69.859375 0.285156 L 69.277344 0.867188 L 65.789062 0.867188 L 65.207031 0.285156 L 64.625 0.867188 L 61.203125 0.867188 L 60.621094 0.285156 L 60.039062 0.867188 L 56.582031 0.867188 L 56 0.285156 L 55.417969 0.867188 L 51.96875 0.867188 L 51.386719 0.285156 L 50.804688 0.867188 L 47.34375 0.867188 L 46.757812 0.285156 L 46.175781 0.867188 L 42.757812 0.867188 L 42.175781 0.285156 L 41.59375 0.867188 L 38.136719 0.867188 L 37.554688 0.285156 L 36.972656 0.867188 L 33.515625 0.867188 L 32.929688 0.285156 L 32.347656 0.867188 L 28.871094 0.867188 L 28.289062 0.285156 L 27.707031 0.867188 L 24.289062 0.867188 L 23.707031 0.285156 L 23.125 0.867188 L 19.667969 0.867188 L 19.085938 0.285156 L 18.503906 0.867188 L 15.054688 0.867188 L 14.472656 0.285156 L 13.890625 0.867188 L 10.425781 0.867188 L 9.84375 0.285156 L 9.261719 0.867188 L 5.839844 0.867188 L 5.261719 0.285156 L 4.675781 0.867188 L 1.21875 0.867188 L 0.636719 0.285156 L 0 0.921875 L 0.589844 1.511719 L 0.589844 4.9375 L 0 5.527344 L 0.589844 6.117188 L 0.589844 9.542969 L 0 10.132812 L 0.589844 10.726562 L 0.589844 14.148438 L 0 14.738281 L 0.589844 15.328125 L 0.589844 18.753906 L 0 19.34375 L 0.589844 19.933594 L 0.589844 23.359375 L 0 23.949219 L 0.589844 24.539062 L 0.589844 27.96875 L 0 28.554688 L 0.589844 29.144531 L 0.589844 32.566406 L 0 33.160156 L 0.589844 33.75 L 0.589844 37.175781 L 0 37.765625 L 0.589844 38.355469 L 0.589844 41.78125 L 0 42.371094 L 0.589844 42.960938 L 0.589844 46.386719 L 0 46.976562 L 0.589844 47.570312 L 0.589844 50.992188 L 0 51.582031 L 0.589844 52.175781 L 0.589844 55.597656 L 0 56.1875 L 0.589844 56.78125 L 0.589844 60.203125 L 0 60.796875 L 0.589844 61.390625 L 0.589844 64.8125 L 0 65.402344 L 0.589844 65.992188 L 0.589844 69.414062 L 0 70.007812 L 0.589844 70.597656 L 0.589844 74.023438 L 0 74.613281 L 0.636719 75.25 L 1.21875 74.667969 L 4.675781 74.667969 L 5.261719 75.25 L 5.84375 74.667969 L 9.261719 74.667969 L 9.84375 75.25 L 10.425781 74.667969 L 13.890625 74.667969 L 14.472656 75.25 L 15.054688 74.667969 L 18.503906 74.667969 L 19.085938 75.25 L 19.667969 74.667969 L 23.125 74.667969 L 23.707031 75.25 L 24.289062 74.667969 L 27.707031 74.667969 L 28.289062 75.25 L 28.871094 74.667969 L 32.347656 74.667969 L 32.929688 75.25 L 33.515625 74.667969 L 36.972656 74.667969 L 37.554688 75.25 L 38.136719 74.667969 L 41.59375 74.667969 L 42.175781 75.25 L 42.757812 74.667969 L 46.175781 74.667969 L 46.757812 75.25 L 47.34375 74.667969 L 50.804688 74.667969 L 51.386719 75.25 L 51.96875 74.667969 L 55.417969 74.667969 L 56 75.25 L 56.582031 74.667969 L 60.039062 74.667969 L 60.621094 75.25 L 61.203125 74.667969 L 64.625 74.667969 L 65.207031 75.25 L 65.789062 74.667969 L 69.277344 74.667969 L 69.859375 75.25 L 70.496094 74.613281 L 69.914062 74.03125 L 69.914062 70.585938 L 70.496094 70.007812 L 69.914062 69.425781 L 69.914062 65.980469 L 70.496094 65.402344 L 69.914062 64.820312 L 69.914062 61.375 L 70.496094 60.796875 L 69.914062 60.214844 L 69.914062 56.769531 L 70.496094 56.1875 L 69.914062 55.609375 L 69.914062 52.164062 L 70.496094 51.582031 L 69.914062 51.003906 L 69.914062 47.558594 L 70.496094 46.976562 L 69.914062 46.394531 L 69.914062 42.953125 L 70.496094 42.371094 L 69.914062 41.789062 L 69.914062 38.347656 L 70.496094 37.765625 L 69.914062 37.183594 L 69.914062 33.742188 L 70.496094 33.160156 L 69.914062 32.578125 L 69.914062 29.136719 L 70.496094 28.554688 L 69.914062 27.96875 L 69.914062 24.53125 L 70.496094 23.949219 L 69.914062 23.375 L 69.914062 19.925781 L 70.496094 19.34375 L 69.914062 18.761719 L 69.914062 15.320312 L 70.496094 14.738281 L 69.914062 14.15625 L 69.914062 10.714844 L 70.496094 10.132812 L 69.914062 9.550781 L 69.914062 6.109375 Z M 69.273438 74.558594 L 65.789062 74.558594 L 65.300781 74.070312 L 65.300781 70.550781 L 65.789062 70.0625 L 69.273438 70.0625 L 69.804688 70.585938 L 69.804688 74.03125 Z M 64.625 74.558594 L 61.207031 74.558594 L 60.675781 74.03125 L 60.675781 70.585938 L 61.207031 70.0625 L 64.625 70.0625 L 65.179688 70.617188 L 65.179688 74.003906 Z M 55.417969 74.558594 L 51.96875 74.558594 L 51.464844 74.054688 L 51.464844 70.566406 L 51.96875 70.0625 L 55.417969 70.0625 L 55.945312 70.585938 L 55.945312 74.03125 Z M 46.179688 74.558594 L 42.757812 74.558594 L 42.230469 74.03125 L 42.230469 70.585938 L 42.757812 70.0625 L 46.179688 70.0625 L 46.734375 70.617188 L 46.734375 74.003906 Z M 36.972656 74.558594 L 33.515625 74.558594 L 32.996094 74.039062 L 32.996094 70.578125 L 33.515625 70.0625 L 36.972656 70.0625 L 37.5 70.585938 L 37.5 74.03125 Z M 27.710938 74.558594 L 24.289062 74.558594 L 23.761719 74.03125 L 23.761719 70.585938 L 24.289062 70.0625 L 27.710938 70.0625 L 28.265625 70.617188 L 28.265625 74.003906 Z M 18.503906 74.558594 L 15.054688 74.558594 L 14.546875 74.054688 L 14.546875 70.566406 L 15.054688 70.0625 L 18.503906 70.0625 L 19.03125 70.585938 L 19.03125 74.03125 Z M 9.261719 74.558594 L 5.839844 74.558594 L 5.3125 74.03125 L 5.3125 70.585938 L 5.839844 70.0625 L 9.261719 70.0625 L 9.816406 70.617188 L 9.816406 74.003906 Z M 0.703125 74.039062 L 0.703125 70.578125 L 1.21875 70.0625 L 4.675781 70.0625 L 5.203125 70.585938 L 5.203125 74.03125 L 4.675781 74.558594 L 1.21875 74.558594 Z M 1.21875 0.976562 L 4.675781 0.976562 L 5.203125 1.503906 L 5.203125 4.945312 L 4.675781 5.472656 L 1.21875 5.472656 L 0.703125 4.957031 L 0.703125 1.488281 Z M 10.425781 0.976562 L 13.886719 0.976562 L 14.414062 1.503906 L 14.414062 4.945312 L 13.886719 5.472656 L 10.425781 5.472656 L 9.933594 4.984375 L 9.933594 1.464844 Z M 19.664062 0.976562 L 23.125 0.976562 L 23.652344 1.503906 L 23.652344 4.945312 L 23.125 5.472656 L 19.667969 5.472656 L 19.148438 4.957031 L 19.148438 1.488281 Z M 28.871094 0.976562 L 32.347656 0.976562 L 32.882812 1.511719 L 32.882812 4.9375 L 32.347656 5.472656 L 28.871094 5.472656 L 28.382812 4.984375 L 28.382812 1.464844 Z M 38.132812 0.976562 L 41.589844 0.976562 L 42.117188 1.503906 L 42.117188 4.945312 L 41.589844 5.472656 L 38.136719 5.472656 L 37.621094 4.957031 L 37.621094 1.488281 Z M 47.339844 0.976562 L 50.804688 0.976562 L 51.332031 1.503906 L 51.332031 4.945312 L 50.804688 5.472656 L 47.34375 5.472656 L 46.851562 4.984375 L 46.851562 1.464844 Z M 56.578125 0.976562 L 60.039062 0.976562 L 60.566406 1.503906 L 60.566406 4.945312 L 60.039062 5.472656 L 56.582031 5.472656 L 56.066406 4.957031 L 56.066406 1.488281 Z M 65.785156 0.976562 L 69.273438 0.976562 L 69.800781 1.503906 L 69.800781 4.945312 L 69.273438 5.472656 L 65.789062 5.472656 L 65.300781 4.984375 L 65.300781 1.464844 Z M 61.203125 69.953125 L 60.675781 69.425781 L 60.675781 65.980469 L 61.203125 65.457031 L 64.625 65.457031 L 65.179688 66.011719 L 65.179688 69.402344 L 64.625 69.957031 Z M 56.582031 69.953125 L 56.066406 69.433594 L 56.066406 65.972656 L 56.582031 65.457031 L 60.039062 65.457031 L 60.566406 65.980469 L 60.566406 69.425781 L 60.039062 69.953125 Z M 51.96875 69.953125 L 51.464844 69.441406 L 51.464844 65.960938 L 51.96875 65.457031 L 55.417969 65.457031 L 55.945312 65.980469 L 55.945312 69.425781 L 55.417969 69.953125 Z M 47.34375 69.953125 L 46.851562 69.464844 L 46.851562 65.941406 L 47.34375 65.453125 L 50.804688 65.453125 L 51.332031 65.980469 L 51.332031 69.421875 L 50.804688 69.949219 Z M 42.757812 69.953125 L 42.230469 69.425781 L 42.230469 65.980469 L 42.757812 65.457031 L 46.175781 65.457031 L 46.734375 66.011719 L 46.734375 69.402344 L 46.175781 69.957031 Z M 38.136719 69.953125 L 37.617188 69.433594 L 37.617188 65.972656 L 38.136719 65.457031 L 41.59375 65.457031 L 42.121094 65.980469 L 42.121094 69.425781 L 41.59375 69.953125 Z M 33.515625 69.953125 L 32.996094 69.433594 L 32.996094 65.972656 L 33.515625 65.457031 L 36.972656 65.457031 L 37.5 65.980469 L 37.5 69.425781 L 36.972656 69.953125 Z M 28.871094 69.953125 L 28.382812 69.464844 L 28.382812 65.941406 L 28.875 65.453125 L 32.351562 65.453125 L 32.886719 65.988281 L 32.886719 69.414062 L 32.351562 69.949219 Z M 24.289062 69.953125 L 23.761719 69.425781 L 23.761719 65.980469 L 24.289062 65.457031 L 27.707031 65.457031 L 28.261719 66.011719 L 28.261719 69.402344 L 27.707031 69.957031 Z M 19.667969 69.953125 L 19.148438 69.433594 L 19.148438 65.972656 L 19.667969 65.457031 L 23.125 65.457031 L 23.652344 65.980469 L 23.652344 69.425781 L 23.125 69.953125 Z M 15.054688 69.953125 L 14.546875 69.441406 L 14.546875 65.960938 L 15.054688 65.457031 L 18.503906 65.457031 L 19.03125 65.980469 L 19.03125 69.425781 L 18.503906 69.953125 Z M 10.425781 69.953125 L 9.933594 69.464844 L 9.933594 65.941406 L 10.425781 65.453125 L 13.890625 65.453125 L 14.417969 65.980469 L 14.417969 69.421875 L 13.890625 69.949219 Z M 5.839844 69.953125 L 5.3125 69.425781 L 5.3125 65.980469 L 5.839844 65.457031 L 9.261719 65.457031 L 9.816406 66.011719 L 9.816406 69.402344 L 9.261719 69.957031 Z M 9.261719 5.582031 L 9.816406 6.136719 L 9.816406 9.527344 L 9.261719 10.078125 L 5.839844 10.078125 L 5.3125 9.550781 L 5.3125 6.109375 L 5.839844 5.582031 Z M 13.890625 5.582031 L 14.417969 6.109375 L 14.417969 9.550781 L 13.890625 10.078125 L 10.425781 10.078125 L 9.933594 9.585938 L 9.933594 6.070312 L 10.425781 5.582031 Z M 18.503906 5.582031 L 19.03125 6.109375 L 19.03125 9.550781 L 18.503906 10.078125 L 15.054688 10.078125 L 14.546875 9.574219 L 14.546875 6.085938 L 15.054688 5.582031 Z M 23.125 5.582031 L 23.652344 6.109375 L 23.652344 9.550781 L 23.125 10.078125 L 19.667969 10.078125 L 19.148438 9.558594 L 19.148438 6.097656 L 19.667969 5.582031 Z M 27.707031 5.582031 L 28.261719 6.136719 L 28.261719 9.527344 L 27.707031 10.082031 L 24.289062 10.082031 L 23.761719 9.558594 L 23.761719 6.109375 L 24.289062 5.582031 Z M 32.347656 5.582031 L 32.886719 6.117188 L 32.886719 9.542969 L 32.347656 10.078125 L 28.871094 10.078125 L 28.382812 9.585938 L 28.382812 6.070312 L 28.875 5.582031 Z M 36.972656 5.582031 L 37.5 6.109375 L 37.5 9.550781 L 36.972656 10.078125 L 33.515625 10.078125 L 32.996094 9.558594 L 32.996094 6.097656 L 33.515625 5.582031 Z M 41.59375 5.582031 L 42.121094 6.109375 L 42.121094 9.550781 L 41.59375 10.078125 L 38.136719 10.078125 L 37.621094 9.558594 L 37.621094 6.097656 L 38.136719 5.582031 Z M 46.175781 5.582031 L 46.734375 6.136719 L 46.734375 9.527344 L 46.175781 10.082031 L 42.757812 10.082031 L 42.230469 9.558594 L 42.230469 6.109375 L 42.757812 5.582031 Z M 50.804688 5.582031 L 51.332031 6.109375 L 51.332031 9.550781 L 50.804688 10.078125 L 47.34375 10.078125 L 46.851562 9.585938 L 46.851562 6.070312 L 47.34375 5.582031 Z M 55.417969 5.582031 L 55.945312 6.109375 L 55.945312 9.550781 L 55.417969 10.078125 L 51.96875 10.078125 L 51.464844 9.574219 L 51.464844 6.085938 L 51.96875 5.582031 Z M 60.039062 5.582031 L 60.566406 6.109375 L 60.566406 9.550781 L 60.039062 10.078125 L 56.582031 10.078125 L 56.066406 9.558594 L 56.066406 6.097656 L 56.582031 5.582031 Z M 64.625 5.582031 L 65.179688 6.136719 L 65.179688 9.527344 L 64.625 10.082031 L 61.207031 10.082031 L 60.675781 9.558594 L 60.675781 6.109375 L 61.207031 5.582031 Z M 61.203125 65.347656 L 60.675781 64.820312 L 60.675781 61.375 L 61.203125 60.851562 L 64.625 60.851562 L 65.179688 61.40625 L 65.179688 64.796875 L 64.625 65.351562 Z M 56.582031 65.347656 L 56.066406 64.828125 L 56.066406 61.367188 L 56.582031 60.851562 L 60.039062 60.851562 L 60.566406 61.375 L 60.566406 64.820312 L 60.039062 65.347656 Z M 51.96875 65.347656 L 51.464844 64.847656 L 51.464844 61.355469 L 51.96875 60.851562 L 55.417969 60.851562 L 55.945312 61.375 L 55.945312 64.820312 L 55.417969 65.347656 Z M 47.34375 65.347656 L 46.851562 64.855469 L 46.851562 61.339844 L 47.34375 60.851562 L 50.804688 60.851562 L 51.332031 61.375 L 51.332031 64.820312 L 50.804688 65.347656 Z M 42.757812 65.347656 L 42.230469 64.820312 L 42.230469 61.375 L 42.757812 60.851562 L 46.175781 60.851562 L 46.734375 61.40625 L 46.734375 64.796875 L 46.175781 65.351562 Z M 38.136719 65.347656 L 37.617188 64.828125 L 37.617188 61.367188 L 38.136719 60.851562 L 41.59375 60.851562 L 42.121094 61.375 L 42.121094 64.820312 L 41.59375 65.347656 Z M 33.515625 65.347656 L 32.996094 64.828125 L 32.996094 61.367188 L 33.515625 60.851562 L 36.972656 60.851562 L 37.5 61.375 L 37.5 64.820312 L 36.972656 65.347656 Z M 28.871094 65.347656 L 28.382812 64.855469 L 28.382812 61.339844 L 28.875 60.851562 L 32.351562 60.851562 L 32.886719 61.386719 L 32.886719 64.808594 L 32.351562 65.347656 Z M 24.289062 65.347656 L 23.761719 64.820312 L 23.761719 61.375 L 24.289062 60.851562 L 27.707031 60.851562 L 28.261719 61.40625 L 28.261719 64.796875 L 27.707031 65.351562 Z M 19.667969 65.347656 L 19.148438 64.828125 L 19.148438 61.367188 L 19.667969 60.851562 L 23.125 60.851562 L 23.652344 61.375 L 23.652344 64.820312 L 23.125 65.347656 Z M 15.054688 65.347656 L 14.546875 64.847656 L 14.546875 61.355469 L 15.054688 60.851562 L 18.503906 60.851562 L 19.03125 61.375 L 19.03125 64.820312 L 18.503906 65.347656 Z M 10.425781 65.347656 L 9.933594 64.855469 L 9.933594 61.339844 L 10.425781 60.851562 L 13.890625 60.851562 L 14.417969 61.375 L 14.417969 64.820312 L 13.890625 65.347656 Z M 5.839844 65.347656 L 5.3125 64.820312 L 5.3125 61.375 L 5.839844 60.851562 L 9.261719 60.851562 L 9.816406 61.40625 L 9.816406 64.796875 L 9.261719 65.351562 Z M 5.839844 56.246094 L 9.261719 56.246094 L 9.816406 56.800781 L 9.816406 60.1875 L 9.261719 60.742188 L 5.839844 60.742188 L 5.3125 60.214844 L 5.3125 56.769531 Z M 5.839844 51.636719 L 9.261719 51.636719 L 9.816406 52.191406 L 9.816406 55.578125 L 9.261719 56.132812 L 5.839844 56.132812 L 5.3125 55.609375 L 5.3125 52.164062 Z M 5.839844 47.03125 L 9.261719 47.03125 L 9.816406 47.585938 L 9.816406 50.980469 L 9.261719 51.535156 L 5.839844 51.535156 L 5.3125 51.007812 L 5.3125 47.558594 Z M 5.839844 42.425781 L 9.261719 42.425781 L 9.816406 42.984375 L 9.816406 46.367188 L 9.261719 46.921875 L 5.839844 46.921875 L 5.3125 46.398438 L 5.3125 42.953125 Z M 5.839844 37.820312 L 9.261719 37.820312 L 9.816406 38.375 L 9.816406 41.757812 L 9.261719 42.3125 L 5.839844 42.3125 L 5.3125 41.785156 L 5.3125 38.347656 Z M 5.839844 33.214844 L 9.261719 33.214844 L 9.816406 33.769531 L 9.816406 37.164062 L 9.261719 37.710938 L 5.839844 37.710938 L 5.3125 37.183594 L 5.3125 33.742188 Z M 5.839844 28.609375 L 9.261719 28.609375 L 9.816406 29.164062 L 9.816406 32.550781 L 9.261719 33.105469 L 5.839844 33.105469 L 5.3125 32.578125 L 5.3125 29.136719 Z M 5.839844 24.003906 L 9.261719 24.003906 L 9.816406 24.558594 L 9.816406 27.945312 L 9.261719 28.5 L 5.839844 28.5 L 5.3125 27.96875 L 5.3125 24.53125 Z M 5.839844 19.398438 L 9.261719 19.398438 L 9.816406 19.953125 L 9.816406 23.339844 L 9.261719 23.894531 L 5.839844 23.894531 L 5.3125 23.375 L 5.3125 19.925781 Z M 5.839844 14.792969 L 9.261719 14.792969 L 9.816406 15.347656 L 9.816406 18.734375 L 9.261719 19.289062 L 5.839844 19.289062 L 5.3125 18.761719 L 5.3125 15.320312 Z M 5.839844 10.1875 L 9.261719 10.1875 L 9.816406 10.742188 L 9.816406 14.132812 L 9.261719 14.6875 L 5.839844 14.6875 L 5.3125 14.164062 L 5.3125 10.714844 Z M 13.890625 10.1875 L 14.417969 10.714844 L 14.417969 14.15625 L 13.890625 14.683594 L 10.425781 14.683594 L 9.933594 14.195312 L 9.933594 10.679688 L 10.425781 10.191406 Z M 18.503906 10.1875 L 19.03125 10.714844 L 19.03125 14.15625 L 18.503906 14.683594 L 15.054688 14.683594 L 14.546875 14.183594 L 14.546875 10.691406 L 15.054688 10.1875 Z M 23.125 10.1875 L 23.652344 10.714844 L 23.652344 14.15625 L 23.125 14.683594 L 19.667969 14.683594 L 19.148438 14.167969 L 19.148438 10.703125 L 19.667969 10.1875 Z M 27.707031 10.1875 L 28.261719 10.742188 L 28.261719 14.132812 L 27.707031 14.6875 L 24.289062 14.6875 L 23.761719 14.164062 L 23.761719 10.714844 L 24.289062 10.1875 Z M 32.347656 10.1875 L 32.886719 10.722656 L 32.886719 14.148438 L 32.347656 14.683594 L 28.871094 14.683594 L 28.382812 14.195312 L 28.382812 10.679688 L 28.875 10.191406 Z M 36.972656 10.1875 L 37.5 10.714844 L 37.5 14.15625 L 36.972656 14.683594 L 33.515625 14.683594 L 32.996094 14.167969 L 32.996094 10.703125 L 33.515625 10.1875 Z M 41.59375 10.1875 L 42.121094 10.714844 L 42.121094 14.15625 L 41.59375 14.683594 L 38.136719 14.683594 L 37.621094 14.167969 L 37.621094 10.703125 L 38.136719 10.1875 Z M 46.175781 10.1875 L 46.734375 10.742188 L 46.734375 14.132812 L 46.175781 14.6875 L 42.757812 14.6875 L 42.230469 14.164062 L 42.230469 10.714844 L 42.757812 10.1875 Z M 50.804688 10.1875 L 51.332031 10.714844 L 51.332031 14.15625 L 50.804688 14.683594 L 47.34375 14.683594 L 46.851562 14.195312 L 46.851562 10.679688 L 47.34375 10.1875 Z M 55.417969 10.1875 L 55.945312 10.714844 L 55.945312 14.15625 L 55.417969 14.683594 L 51.96875 14.683594 L 51.464844 14.183594 L 51.464844 10.691406 L 51.96875 10.1875 Z M 60.039062 10.1875 L 60.566406 10.714844 L 60.566406 14.15625 L 60.039062 14.683594 L 56.582031 14.683594 L 56.066406 14.167969 L 56.066406 10.703125 L 56.582031 10.1875 Z M 64.625 10.1875 L 65.179688 10.742188 L 65.179688 14.132812 L 64.625 14.6875 L 61.203125 14.6875 L 60.675781 14.164062 L 60.675781 10.714844 L 61.203125 10.1875 Z M 65.179688 18.734375 L 64.625 19.289062 L 61.203125 19.289062 L 60.675781 18.761719 L 60.675781 15.320312 L 61.203125 14.792969 L 64.625 14.792969 L 65.179688 15.347656 Z M 65.179688 23.339844 L 64.625 23.894531 L 61.203125 23.894531 L 60.675781 23.375 L 60.675781 19.925781 L 61.203125 19.398438 L 64.625 19.398438 L 65.179688 19.953125 Z M 65.179688 27.945312 L 64.625 28.5 L 61.203125 28.5 L 60.675781 27.96875 L 60.675781 24.53125 L 61.203125 24.003906 L 64.625 24.003906 L 65.179688 24.558594 Z M 65.179688 32.550781 L 64.625 33.105469 L 61.207031 33.105469 L 60.675781 32.578125 L 60.675781 29.136719 L 61.207031 28.609375 L 64.625 28.609375 L 65.179688 29.164062 Z M 65.179688 37.15625 L 64.625 37.710938 L 61.203125 37.710938 L 60.675781 37.183594 L 60.675781 33.742188 L 61.203125 33.214844 L 64.625 33.214844 L 65.179688 33.769531 Z M 65.179688 41.761719 L 64.625 42.316406 L 61.203125 42.316406 L 60.675781 41.789062 L 60.675781 38.347656 L 61.203125 37.820312 L 64.625 37.820312 L 65.179688 38.375 Z M 65.179688 46.367188 L 64.625 46.921875 L 61.203125 46.921875 L 60.675781 46.398438 L 60.675781 42.953125 L 61.203125 42.425781 L 64.625 42.425781 L 65.179688 42.984375 Z M 65.179688 50.972656 L 64.625 51.527344 L 61.207031 51.527344 L 60.675781 51.003906 L 60.675781 47.558594 L 61.207031 47.03125 L 64.625 47.03125 L 65.179688 47.585938 Z M 65.179688 55.578125 L 64.625 56.132812 L 61.203125 56.132812 L 60.675781 55.609375 L 60.675781 52.164062 L 61.203125 51.636719 L 64.625 51.636719 L 65.179688 52.191406 Z M 65.179688 60.1875 L 64.625 60.742188 L 61.203125 60.742188 L 60.675781 60.214844 L 60.675781 56.769531 L 61.203125 56.246094 L 64.625 56.246094 L 65.179688 56.800781 Z M 56.582031 60.742188 L 56.066406 60.222656 L 56.066406 56.761719 L 56.582031 56.246094 L 60.039062 56.246094 L 60.566406 56.769531 L 60.566406 60.214844 L 60.039062 60.742188 Z M 51.96875 60.742188 L 51.464844 60.234375 L 51.464844 56.75 L 51.96875 56.246094 L 55.417969 56.246094 L 55.945312 56.773438 L 55.945312 60.214844 L 55.417969 60.742188 Z M 47.34375 60.742188 L 46.851562 60.25 L 46.851562 56.734375 L 47.34375 56.246094 L 50.804688 56.246094 L 51.332031 56.769531 L 51.332031 60.214844 L 50.804688 60.742188 Z M 42.757812 60.742188 L 42.230469 60.214844 L 42.230469 56.769531 L 42.757812 56.246094 L 46.175781 56.246094 L 46.734375 56.800781 L 46.734375 60.1875 L 46.175781 60.742188 Z M 38.136719 60.742188 L 37.617188 60.222656 L 37.617188 56.761719 L 38.136719 56.246094 L 41.59375 56.246094 L 42.121094 56.769531 L 42.121094 60.214844 L 41.59375 60.742188 Z M 33.515625 60.742188 L 32.996094 60.222656 L 32.996094 56.761719 L 33.515625 56.246094 L 36.972656 56.246094 L 37.5 56.769531 L 37.5 60.214844 L 36.972656 60.742188 Z M 28.871094 60.742188 L 28.382812 60.25 L 28.382812 56.734375 L 28.875 56.246094 L 32.351562 56.246094 L 32.886719 56.78125 L 32.886719 60.203125 L 32.351562 60.742188 Z M 24.289062 60.742188 L 23.761719 60.214844 L 23.761719 56.769531 L 24.289062 56.246094 L 27.707031 56.246094 L 28.261719 56.800781 L 28.261719 60.1875 L 27.707031 60.742188 Z M 19.667969 60.742188 L 19.148438 60.222656 L 19.148438 56.761719 L 19.667969 56.246094 L 23.125 56.246094 L 23.652344 56.769531 L 23.652344 60.214844 L 23.125 60.742188 Z M 15.054688 60.742188 L 14.546875 60.234375 L 14.546875 56.75 L 15.054688 56.246094 L 18.503906 56.246094 L 19.03125 56.773438 L 19.03125 60.214844 L 18.503906 60.742188 Z M 10.425781 60.742188 L 9.933594 60.25 L 9.933594 56.734375 L 10.425781 56.246094 L 13.890625 56.246094 L 14.417969 56.769531 L 14.417969 60.214844 L 13.890625 60.742188 Z M 13.890625 14.792969 L 14.417969 15.320312 L 14.417969 18.761719 L 13.890625 19.289062 L 10.425781 19.289062 L 9.933594 18.800781 L 9.933594 15.28125 L 10.425781 14.792969 Z M 18.503906 14.792969 L 19.03125 15.320312 L 19.03125 18.761719 L 18.503906 19.289062 L 15.054688 19.289062 L 14.546875 18.785156 L 14.546875 15.296875 L 15.054688 14.792969 Z M 23.125 14.792969 L 23.652344 15.320312 L 23.652344 18.761719 L 23.125 19.289062 L 19.667969 19.289062 L 19.148438 18.773438 L 19.148438 15.308594 L 19.667969 14.792969 Z M 27.707031 14.792969 L 28.261719 15.347656 L 28.261719 18.734375 L 27.707031 19.289062 L 24.289062 19.289062 L 23.761719 18.761719 L 23.761719 15.320312 L 24.289062 14.792969 Z M 32.347656 14.792969 L 32.886719 15.328125 L 32.886719 18.753906 L 32.347656 19.289062 L 28.871094 19.289062 L 28.382812 18.800781 L 28.382812 15.28125 L 28.875 14.792969 Z M 36.972656 14.792969 L 37.5 15.320312 L 37.5 18.761719 L 36.972656 19.289062 L 33.515625 19.289062 L 32.996094 18.773438 L 32.996094 15.308594 L 33.515625 14.792969 Z M 41.59375 14.792969 L 42.121094 15.320312 L 42.121094 18.761719 L 41.59375 19.289062 L 38.136719 19.289062 L 37.621094 18.773438 L 37.621094 15.308594 L 38.136719 14.792969 Z M 46.175781 14.792969 L 46.734375 15.347656 L 46.734375 18.734375 L 46.175781 19.289062 L 42.757812 19.289062 L 42.230469 18.761719 L 42.230469 15.320312 L 42.757812 14.792969 Z M 50.804688 14.792969 L 51.332031 15.320312 L 51.332031 18.761719 L 50.804688 19.289062 L 47.34375 19.289062 L 46.851562 18.800781 L 46.851562 15.277344 L 47.34375 14.789062 Z M 55.417969 14.792969 L 55.945312 15.320312 L 55.945312 18.761719 L 55.417969 19.289062 L 51.96875 19.289062 L 51.464844 18.785156 L 51.464844 15.296875 L 51.96875 14.792969 Z M 60.039062 14.792969 L 60.566406 15.320312 L 60.566406 18.761719 L 60.039062 19.289062 L 56.582031 19.289062 L 56.066406 18.773438 L 56.066406 15.308594 L 56.582031 14.792969 Z M 56.582031 56.132812 L 56.066406 55.617188 L 56.066406 52.152344 L 56.582031 51.636719 L 60.039062 51.636719 L 60.566406 52.164062 L 60.566406 55.605469 L 60.039062 56.132812 Z M 51.96875 56.132812 L 51.464844 55.628906 L 51.464844 52.144531 L 51.96875 51.636719 L 55.417969 51.636719 L 55.945312 52.164062 L 55.945312 55.609375 L 55.417969 56.132812 Z M 47.34375 56.132812 L 46.851562 55.648438 L 46.851562 52.128906 L 47.34375 51.636719 L 50.804688 51.636719 L 51.332031 52.164062 L 51.332031 55.609375 L 50.804688 56.132812 Z M 42.757812 56.132812 L 42.230469 55.609375 L 42.230469 52.164062 L 42.757812 51.636719 L 46.175781 51.636719 L 46.734375 52.191406 L 46.734375 55.578125 L 46.175781 56.132812 Z M 38.136719 56.132812 L 37.617188 55.617188 L 37.617188 52.152344 L 38.136719 51.636719 L 41.59375 51.636719 L 42.121094 52.164062 L 42.121094 55.605469 L 41.59375 56.132812 Z M 33.515625 56.132812 L 32.996094 55.617188 L 32.996094 52.152344 L 33.515625 51.636719 L 36.972656 51.636719 L 37.5 52.164062 L 37.5 55.605469 L 36.972656 56.132812 Z M 28.871094 56.132812 L 28.382812 55.648438 L 28.382812 52.128906 L 28.875 51.636719 L 32.351562 51.636719 L 32.886719 52.175781 L 32.886719 55.597656 L 32.351562 56.132812 Z M 24.289062 56.132812 L 23.761719 55.609375 L 23.761719 52.164062 L 24.289062 51.636719 L 27.707031 51.636719 L 28.261719 52.191406 L 28.261719 55.578125 L 27.707031 56.132812 Z M 19.667969 56.132812 L 19.148438 55.617188 L 19.148438 52.152344 L 19.667969 51.636719 L 23.125 51.636719 L 23.652344 52.164062 L 23.652344 55.605469 L 23.125 56.132812 Z M 15.054688 56.132812 L 14.546875 55.628906 L 14.546875 52.144531 L 15.054688 51.636719 L 18.503906 51.636719 L 19.03125 52.164062 L 19.03125 55.609375 L 18.503906 56.132812 Z M 10.425781 56.132812 L 9.933594 55.648438 L 9.933594 52.128906 L 10.425781 51.636719 L 13.890625 51.636719 L 14.417969 52.164062 L 14.417969 55.609375 L 13.890625 56.132812 Z M 13.890625 19.398438 L 14.417969 19.925781 L 14.417969 23.375 L 13.890625 23.902344 L 10.425781 23.902344 L 9.933594 23.410156 L 9.933594 19.886719 L 10.425781 19.398438 Z M 18.503906 19.398438 L 19.03125 19.925781 L 19.03125 23.375 L 18.503906 23.902344 L 15.054688 23.902344 L 14.546875 23.394531 L 14.546875 19.902344 L 15.054688 19.398438 Z M 23.125 19.398438 L 23.652344 19.925781 L 23.652344 23.375 L 23.125 23.894531 L 19.667969 23.894531 L 19.148438 23.375 L 19.148438 19.914062 L 19.667969 19.398438 Z M 27.707031 19.398438 L 28.261719 19.953125 L 28.261719 23.339844 L 27.707031 23.894531 L 24.289062 23.894531 L 23.761719 23.375 L 23.761719 19.925781 L 24.289062 19.398438 Z M 32.347656 19.398438 L 32.886719 19.933594 L 32.886719 23.359375 L 32.347656 23.894531 L 28.871094 23.894531 L 28.382812 23.40625 L 28.382812 19.886719 L 28.875 19.398438 Z M 36.972656 19.398438 L 37.5 19.925781 L 37.5 23.375 L 36.972656 23.902344 L 33.515625 23.902344 L 32.996094 23.375 L 32.996094 19.914062 L 33.515625 19.398438 Z M 41.59375 19.398438 L 42.121094 19.925781 L 42.121094 23.375 L 41.59375 23.902344 L 38.136719 23.902344 L 37.617188 23.375 L 37.617188 19.914062 L 38.136719 19.398438 Z M 46.175781 19.398438 L 46.734375 19.953125 L 46.734375 23.339844 L 46.175781 23.894531 L 42.757812 23.894531 L 42.230469 23.375 L 42.230469 19.925781 L 42.757812 19.398438 Z M 50.804688 19.398438 L 51.332031 19.925781 L 51.332031 23.375 L 50.804688 23.902344 L 47.34375 23.902344 L 46.851562 23.410156 L 46.851562 19.886719 L 47.34375 19.398438 Z M 55.417969 19.398438 L 55.945312 19.925781 L 55.945312 23.375 L 55.417969 23.902344 L 51.96875 23.902344 L 51.464844 23.394531 L 51.464844 19.902344 L 51.96875 19.398438 Z M 60.039062 19.398438 L 60.566406 19.925781 L 60.566406 23.375 L 60.039062 23.902344 L 56.582031 23.902344 L 56.066406 23.375 L 56.066406 19.914062 L 56.582031 19.398438 Z M 60.039062 28.5 L 56.582031 28.5 L 56.066406 27.984375 L 56.066406 24.519531 L 56.582031 24.003906 L 60.039062 24.003906 L 60.566406 24.53125 L 60.566406 27.96875 Z M 60.039062 33.105469 L 56.582031 33.105469 L 56.066406 32.589844 L 56.066406 29.128906 L 56.582031 28.609375 L 60.039062 28.609375 L 60.566406 29.136719 L 60.566406 32.578125 Z M 60.039062 37.710938 L 56.582031 37.710938 L 56.066406 37.195312 L 56.066406 33.734375 L 56.582031 33.214844 L 60.039062 33.214844 L 60.566406 33.742188 L 60.566406 37.183594 Z M 60.039062 42.316406 L 56.582031 42.316406 L 56.066406 41.800781 L 56.066406 38.339844 L 56.582031 37.820312 L 60.039062 37.820312 L 60.566406 38.347656 L 60.566406 41.789062 Z M 60.039062 46.921875 L 56.582031 46.921875 L 56.066406 46.40625 L 56.066406 42.945312 L 56.582031 42.425781 L 60.039062 42.425781 L 60.566406 42.953125 L 60.566406 46.398438 Z M 60.039062 51.527344 L 56.582031 51.527344 L 56.066406 51.011719 L 56.066406 47.550781 L 56.582031 47.03125 L 60.039062 47.03125 L 60.566406 47.558594 L 60.566406 51.003906 Z M 51.96875 51.527344 L 51.464844 51.023438 L 51.464844 47.535156 L 51.96875 47.03125 L 55.417969 47.03125 L 55.945312 47.558594 L 55.945312 51 L 55.417969 51.527344 Z M 47.34375 51.527344 L 46.851562 51.039062 L 46.851562 47.523438 L 47.34375 47.03125 L 50.804688 47.03125 L 51.332031 47.558594 L 51.332031 51.003906 L 50.804688 51.527344 Z M 42.757812 51.527344 L 42.230469 51.003906 L 42.230469 47.558594 L 42.757812 47.03125 L 46.175781 47.03125 L 46.734375 47.585938 L 46.734375 50.976562 L 46.175781 51.535156 Z M 38.136719 51.527344 L 37.617188 51.011719 L 37.617188 47.550781 L 38.136719 47.03125 L 41.59375 47.03125 L 42.121094 47.558594 L 42.121094 51.003906 L 41.59375 51.527344 Z M 33.515625 51.527344 L 32.996094 51.011719 L 32.996094 47.550781 L 33.515625 47.03125 L 36.972656 47.03125 L 37.5 47.558594 L 37.5 51.003906 L 36.972656 51.527344 Z M 28.871094 51.527344 L 28.382812 51.039062 L 28.382812 47.523438 L 28.875 47.03125 L 32.351562 47.03125 L 32.886719 47.570312 L 32.886719 50.992188 L 32.351562 51.527344 Z M 24.289062 51.527344 L 23.761719 51.003906 L 23.761719 47.558594 L 24.289062 47.03125 L 27.707031 47.03125 L 28.261719 47.585938 L 28.261719 50.976562 L 27.707031 51.53125 Z M 19.667969 51.527344 L 19.148438 51.011719 L 19.148438 47.550781 L 19.667969 47.03125 L 23.125 47.03125 L 23.652344 47.558594 L 23.652344 51.003906 L 23.125 51.527344 Z M 15.054688 51.527344 L 14.546875 51.023438 L 14.546875 47.535156 L 15.054688 47.03125 L 18.503906 47.03125 L 19.03125 47.558594 L 19.03125 51.003906 L 18.503906 51.527344 Z M 10.425781 51.527344 L 9.933594 51.039062 L 9.933594 47.523438 L 10.425781 47.03125 L 13.890625 47.03125 L 14.417969 47.558594 L 14.417969 51.003906 L 13.890625 51.527344 Z M 9.933594 42.914062 L 10.425781 42.425781 L 13.890625 42.425781 L 14.417969 42.953125 L 14.417969 46.398438 L 13.890625 46.921875 L 10.425781 46.921875 L 9.933594 46.433594 Z M 9.933594 38.308594 L 10.425781 37.820312 L 13.890625 37.820312 L 14.417969 38.347656 L 14.417969 41.789062 L 13.890625 42.316406 L 10.425781 42.316406 L 9.933594 41.828125 Z M 9.933594 33.703125 L 10.425781 33.214844 L 13.890625 33.214844 L 14.417969 33.742188 L 14.417969 37.183594 L 13.890625 37.710938 L 10.425781 37.710938 L 9.933594 37.222656 Z M 9.933594 29.097656 L 10.425781 28.609375 L 13.890625 28.609375 L 14.417969 29.136719 L 14.417969 32.578125 L 13.890625 33.105469 L 10.425781 33.105469 L 9.933594 32.617188 Z M 9.933594 24.492188 L 10.425781 24.003906 L 13.890625 24.003906 L 14.417969 24.53125 L 14.417969 27.96875 L 13.890625 28.496094 L 10.425781 28.496094 L 9.933594 28.007812 Z M 18.503906 24.003906 L 19.03125 24.53125 L 19.03125 27.96875 L 18.503906 28.496094 L 15.054688 28.496094 L 14.546875 27.992188 L 14.546875 24.507812 L 15.054688 24.003906 Z M 23.125 24.003906 L 23.652344 24.53125 L 23.652344 27.96875 L 23.125 28.5 L 19.667969 28.5 L 19.148438 27.984375 L 19.148438 24.519531 L 19.667969 24.003906 Z M 27.707031 24.003906 L 28.261719 24.558594 L 28.261719 27.945312 L 27.707031 28.5 L 24.289062 28.5 L 23.761719 27.96875 L 23.761719 24.53125 L 24.289062 24.003906 Z M 32.347656 24.003906 L 32.886719 24.539062 L 32.886719 27.96875 L 32.347656 28.507812 L 28.871094 28.507812 L 28.382812 28.011719 L 28.382812 24.492188 L 28.875 24.003906 Z M 36.972656 24.003906 L 37.5 24.53125 L 37.5 27.96875 L 36.972656 28.496094 L 33.515625 28.496094 L 32.996094 27.980469 L 32.996094 24.519531 L 33.515625 24.003906 Z M 41.59375 24.003906 L 42.121094 24.53125 L 42.121094 27.96875 L 41.59375 28.496094 L 38.136719 28.496094 L 37.621094 27.980469 L 37.621094 24.519531 L 38.136719 24.003906 Z M 46.175781 24.003906 L 46.734375 24.558594 L 46.734375 27.945312 L 46.175781 28.5 L 42.757812 28.5 L 42.230469 27.96875 L 42.230469 24.53125 L 42.757812 24.003906 Z M 50.804688 24.003906 L 51.332031 24.53125 L 51.332031 27.96875 L 50.804688 28.496094 L 47.34375 28.496094 L 46.851562 28.007812 L 46.851562 24.492188 L 47.34375 24.003906 Z M 55.417969 24.003906 L 55.945312 24.53125 L 55.945312 27.96875 L 55.417969 28.496094 L 51.96875 28.496094 L 51.464844 27.992188 L 51.464844 24.507812 L 51.96875 24.003906 Z M 51.96875 46.921875 L 51.464844 46.417969 L 51.464844 42.929688 L 51.96875 42.425781 L 55.417969 42.425781 L 55.945312 42.953125 L 55.945312 46.398438 L 55.417969 46.921875 Z M 47.34375 46.921875 L 46.851562 46.433594 L 46.851562 42.914062 L 47.34375 42.425781 L 50.804688 42.425781 L 51.332031 42.953125 L 51.332031 46.398438 L 50.804688 46.921875 Z M 42.757812 46.921875 L 42.230469 46.398438 L 42.230469 42.953125 L 42.757812 42.425781 L 46.175781 42.425781 L 46.734375 42.984375 L 46.734375 46.367188 L 46.175781 46.921875 Z M 38.136719 46.921875 L 37.617188 46.40625 L 37.617188 42.945312 L 38.136719 42.425781 L 41.59375 42.425781 L 42.121094 42.953125 L 42.121094 46.398438 L 41.59375 46.921875 Z M 33.515625 46.921875 L 32.996094 46.40625 L 32.996094 42.945312 L 33.515625 42.425781 L 36.972656 42.425781 L 37.5 42.953125 L 37.5 46.398438 L 36.972656 46.921875 Z M 28.871094 46.921875 L 28.382812 46.433594 L 28.382812 42.914062 L 28.875 42.425781 L 32.351562 42.425781 L 32.886719 42.964844 L 32.886719 46.386719 L 32.351562 46.921875 Z M 24.289062 46.921875 L 23.761719 46.398438 L 23.761719 42.953125 L 24.289062 42.425781 L 27.707031 42.425781 L 28.261719 42.984375 L 28.261719 46.367188 L 27.707031 46.921875 Z M 19.667969 46.921875 L 19.148438 46.40625 L 19.148438 42.945312 L 19.667969 42.425781 L 23.125 42.425781 L 23.652344 42.953125 L 23.652344 46.398438 L 23.125 46.921875 Z M 15.054688 46.921875 L 14.546875 46.417969 L 14.546875 42.929688 L 15.054688 42.425781 L 18.503906 42.425781 L 19.03125 42.953125 L 19.03125 46.398438 L 18.503906 46.921875 Z M 18.503906 28.609375 L 19.03125 29.136719 L 19.03125 32.578125 L 18.503906 33.105469 L 15.054688 33.105469 L 14.546875 32.601562 L 14.546875 29.113281 L 15.054688 28.609375 Z M 23.125 28.609375 L 23.652344 29.136719 L 23.652344 32.578125 L 23.125 33.105469 L 19.667969 33.105469 L 19.148438 32.589844 L 19.148438 29.128906 L 19.667969 28.609375 Z M 27.707031 28.609375 L 28.261719 29.164062 L 28.261719 32.550781 L 27.707031 33.105469 L 24.289062 33.105469 L 23.761719 32.578125 L 23.761719 29.136719 L 24.289062 28.609375 Z M 32.347656 28.609375 L 32.886719 29.144531 L 32.886719 32.566406 L 32.347656 33.101562 L 28.871094 33.101562 L 28.382812 32.617188 L 28.382812 29.097656 L 28.875 28.609375 Z M 36.972656 28.609375 L 37.5 29.136719 L 37.5 32.578125 L 36.972656 33.105469 L 33.515625 33.105469 L 32.996094 32.589844 L 32.996094 29.128906 L 33.515625 28.609375 Z M 41.59375 28.609375 L 42.121094 29.136719 L 42.121094 32.578125 L 41.59375 33.105469 L 38.136719 33.105469 L 37.621094 32.589844 L 37.621094 29.128906 L 38.136719 28.609375 Z M 46.175781 28.609375 L 46.734375 29.164062 L 46.734375 32.550781 L 46.175781 33.105469 L 42.757812 33.105469 L 42.230469 32.578125 L 42.230469 29.136719 L 42.757812 28.609375 Z M 50.804688 28.609375 L 51.332031 29.136719 L 51.332031 32.578125 L 50.804688 33.105469 L 47.34375 33.105469 L 46.851562 32.617188 L 46.851562 29.097656 L 47.34375 28.609375 Z M 55.417969 28.609375 L 55.945312 29.136719 L 55.945312 32.578125 L 55.417969 33.105469 L 51.96875 33.105469 L 51.464844 32.601562 L 51.464844 29.113281 L 51.96875 28.609375 Z M 51.96875 42.316406 L 51.464844 41.8125 L 51.464844 38.328125 L 51.96875 37.820312 L 55.417969 37.820312 L 55.945312 38.347656 L 55.945312 41.789062 L 55.417969 42.316406 Z M 47.34375 42.316406 L 46.851562 41.828125 L 46.851562 38.308594 L 47.34375 37.820312 L 50.804688 37.820312 L 51.332031 38.347656 L 51.332031 41.789062 L 50.804688 42.316406 Z M 42.757812 42.316406 L 42.230469 41.789062 L 42.230469 38.347656 L 42.757812 37.820312 L 46.175781 37.820312 L 46.734375 38.375 L 46.734375 41.757812 L 46.175781 42.3125 Z M 38.136719 42.316406 L 37.617188 41.800781 L 37.617188 38.339844 L 38.136719 37.820312 L 41.59375 37.820312 L 42.121094 38.347656 L 42.121094 41.789062 L 41.59375 42.316406 Z M 33.515625 42.316406 L 32.996094 41.800781 L 32.996094 38.339844 L 33.515625 37.820312 L 36.972656 37.820312 L 37.5 38.347656 L 37.5 41.789062 L 36.972656 42.316406 Z M 28.871094 42.316406 L 28.382812 41.828125 L 28.382812 38.308594 L 28.875 37.820312 L 32.351562 37.820312 L 32.886719 38.355469 L 32.886719 41.78125 L 32.351562 42.316406 Z M 24.289062 42.316406 L 23.761719 41.789062 L 23.761719 38.347656 L 24.289062 37.820312 L 27.707031 37.820312 L 28.261719 38.375 L 28.261719 41.757812 L 27.707031 42.3125 Z M 19.667969 42.316406 L 19.148438 41.800781 L 19.148438 38.339844 L 19.667969 37.820312 L 23.125 37.820312 L 23.652344 38.347656 L 23.652344 41.789062 L 23.125 42.316406 Z M 15.054688 42.316406 L 14.546875 41.8125 L 14.546875 38.328125 L 15.054688 37.820312 L 18.503906 37.820312 L 19.03125 38.347656 L 19.03125 41.789062 L 18.503906 42.316406 Z M 18.503906 33.214844 L 19.03125 33.742188 L 19.03125 37.183594 L 18.503906 37.710938 L 15.054688 37.710938 L 14.546875 37.203125 L 14.546875 33.722656 L 15.054688 33.214844 Z M 23.125 33.214844 L 23.652344 33.742188 L 23.652344 37.183594 L 23.125 37.710938 L 19.667969 37.710938 L 19.148438 37.191406 L 19.148438 33.734375 L 19.667969 33.214844 Z M 27.707031 33.214844 L 28.261719 33.769531 L 28.261719 37.164062 L 27.707031 37.710938 L 24.289062 37.710938 L 23.761719 37.183594 L 23.761719 33.742188 L 24.289062 33.214844 Z M 32.347656 33.214844 L 32.886719 33.75 L 32.886719 37.175781 L 32.347656 37.710938 L 28.871094 37.710938 L 28.382812 37.222656 L 28.382812 33.703125 L 28.875 33.214844 Z M 36.972656 33.214844 L 37.5 33.742188 L 37.5 37.183594 L 36.972656 37.710938 L 33.515625 37.710938 L 32.996094 37.191406 L 32.996094 33.734375 L 33.515625 33.214844 Z M 41.59375 33.214844 L 42.121094 33.742188 L 42.121094 37.183594 L 41.59375 37.710938 L 38.136719 37.710938 L 37.621094 37.191406 L 37.621094 33.734375 L 38.136719 33.214844 Z M 46.175781 33.214844 L 46.734375 33.769531 L 46.734375 37.164062 L 46.175781 37.710938 L 42.757812 37.710938 L 42.230469 37.183594 L 42.230469 33.742188 L 42.757812 33.214844 Z M 50.804688 33.214844 L 51.332031 33.742188 L 51.332031 37.183594 L 50.804688 37.710938 L 47.34375 37.710938 L 46.851562 37.222656 L 46.851562 33.703125 L 47.34375 33.214844 Z M 55.417969 33.214844 L 55.945312 33.742188 L 55.945312 37.183594 L 55.417969 37.710938 L 51.96875 37.710938 L 51.464844 37.203125 L 51.464844 33.722656 L 51.96875 33.214844 Z M 65.179688 1.53125 L 65.179688 4.917969 L 64.625 5.472656 L 61.203125 5.472656 L 60.675781 4.945312 L 60.675781 1.503906 L 61.203125 0.976562 L 64.625 0.976562 Z M 55.945312 1.503906 L 55.945312 4.945312 L 55.417969 5.472656 L 51.96875 5.472656 L 51.464844 4.96875 L 51.464844 1.480469 L 51.96875 0.976562 L 55.417969 0.976562 Z M 46.734375 1.53125 L 46.734375 4.917969 L 46.175781 5.472656 L 42.757812 5.472656 L 42.230469 4.945312 L 42.230469 1.503906 L 42.757812 0.976562 L 46.175781 0.976562 Z M 37.5 1.503906 L 37.5 4.945312 L 36.972656 5.472656 L 33.515625 5.472656 L 32.996094 4.957031 L 32.996094 1.488281 L 33.515625 0.972656 L 36.972656 0.972656 Z M 28.261719 1.53125 L 28.261719 4.917969 L 27.707031 5.472656 L 24.289062 5.472656 L 23.761719 4.945312 L 23.761719 1.503906 L 24.289062 0.976562 L 27.707031 0.976562 Z M 19.03125 1.503906 L 19.03125 4.945312 L 18.503906 5.472656 L 15.054688 5.472656 L 14.546875 4.96875 L 14.546875 1.480469 L 15.054688 0.976562 L 18.503906 0.976562 Z M 9.816406 1.53125 L 9.816406 4.917969 L 9.261719 5.472656 L 5.839844 5.472656 L 5.3125 4.945312 L 5.3125 1.503906 L 5.839844 0.976562 L 9.261719 0.976562 Z M 1.21875 5.578125 L 4.675781 5.578125 L 5.203125 6.105469 L 5.203125 9.550781 L 4.675781 10.078125 L 1.21875 10.078125 L 0.703125 9.558594 L 0.703125 6.097656 Z M 1.21875 10.183594 L 4.675781 10.183594 L 5.203125 10.710938 L 5.203125 14.15625 L 4.675781 14.679688 L 1.21875 14.679688 L 0.703125 14.167969 L 0.703125 10.703125 Z M 1.21875 14.789062 L 4.675781 14.789062 L 5.203125 15.316406 L 5.203125 18.761719 L 4.675781 19.289062 L 1.21875 19.289062 L 0.703125 18.773438 L 0.703125 15.308594 Z M 1.21875 19.398438 L 4.675781 19.398438 L 5.203125 19.921875 L 5.203125 23.375 L 4.675781 23.902344 L 1.21875 23.902344 L 0.703125 23.375 L 0.703125 19.914062 Z M 1.21875 24.003906 L 4.675781 24.003906 L 5.203125 24.527344 L 5.203125 27.96875 L 4.675781 28.496094 L 1.21875 28.496094 L 0.703125 27.984375 L 0.703125 24.519531 Z M 1.21875 28.609375 L 4.675781 28.609375 L 5.203125 29.132812 L 5.203125 32.578125 L 4.675781 33.105469 L 1.21875 33.105469 L 0.703125 32.589844 L 0.703125 29.128906 Z M 1.21875 33.214844 L 4.675781 33.214844 L 5.203125 33.742188 L 5.203125 37.183594 L 4.675781 37.710938 L 1.21875 37.710938 L 0.703125 37.195312 L 0.703125 33.734375 Z M 1.21875 37.820312 L 4.675781 37.820312 L 5.203125 38.347656 L 5.203125 41.789062 L 4.675781 42.316406 L 1.21875 42.316406 L 0.703125 41.800781 L 0.703125 38.339844 Z M 1.21875 42.425781 L 4.675781 42.425781 L 5.203125 42.953125 L 5.203125 46.394531 L 4.675781 46.921875 L 1.21875 46.921875 L 0.703125 46.40625 L 0.703125 42.945312 Z M 1.21875 47.03125 L 4.675781 47.03125 L 5.203125 47.558594 L 5.203125 51 L 4.675781 51.527344 L 1.21875 51.527344 L 0.703125 51.011719 L 0.703125 47.550781 Z M 1.21875 51.636719 L 4.675781 51.636719 L 5.203125 52.164062 L 5.203125 55.605469 L 4.675781 56.132812 L 1.21875 56.132812 L 0.703125 55.617188 L 0.703125 52.152344 Z M 1.21875 56.242188 L 4.675781 56.242188 L 5.203125 56.769531 L 5.203125 60.210938 L 4.675781 60.738281 L 1.21875 60.738281 L 0.703125 60.222656 L 0.703125 56.761719 Z M 1.21875 60.847656 L 4.675781 60.847656 L 5.203125 61.375 L 5.203125 64.816406 L 4.675781 65.34375 L 1.21875 65.34375 L 0.703125 64.828125 L 0.703125 61.367188 Z M 1.21875 65.453125 L 4.675781 65.453125 L 5.203125 65.980469 L 5.203125 69.421875 L 4.675781 69.949219 L 1.21875 69.949219 L 0.703125 69.433594 L 0.703125 65.972656 Z M 9.933594 74.066406 L 9.933594 70.550781 L 10.425781 70.0625 L 13.890625 70.0625 L 14.417969 70.585938 L 14.417969 74.03125 L 13.890625 74.558594 L 10.425781 74.558594 Z M 19.148438 74.039062 L 19.148438 70.578125 L 19.667969 70.0625 L 23.125 70.0625 L 23.652344 70.585938 L 23.652344 74.03125 L 23.125 74.558594 L 19.667969 74.558594 Z M 28.382812 74.066406 L 28.382812 70.550781 L 28.871094 70.0625 L 32.347656 70.0625 L 32.886719 70.597656 L 32.886719 74.023438 L 32.347656 74.558594 L 28.871094 74.558594 Z M 37.617188 74.039062 L 37.617188 70.578125 L 38.136719 70.0625 L 41.59375 70.0625 L 42.121094 70.585938 L 42.121094 74.03125 L 41.59375 74.558594 L 38.136719 74.558594 Z M 46.851562 74.066406 L 46.851562 70.550781 L 47.34375 70.0625 L 50.804688 70.0625 L 51.332031 70.585938 L 51.332031 74.03125 L 50.804688 74.558594 L 47.34375 74.558594 Z M 56.066406 74.039062 L 56.066406 70.578125 L 56.582031 70.0625 L 60.039062 70.0625 L 60.566406 70.585938 L 60.566406 74.03125 L 60.039062 74.558594 L 56.582031 74.558594 Z M 69.277344 69.949219 L 65.789062 69.949219 L 65.300781 69.460938 L 65.300781 65.941406 L 65.789062 65.453125 L 69.277344 65.453125 L 69.804688 65.980469 L 69.804688 69.421875 Z M 69.277344 65.34375 L 65.789062 65.34375 L 65.300781 64.855469 L 65.300781 61.339844 L 65.789062 60.851562 L 69.277344 60.851562 L 69.804688 61.375 L 69.804688 64.820312 Z M 69.277344 60.738281 L 65.789062 60.738281 L 65.300781 60.25 L 65.300781 56.734375 L 65.789062 56.246094 L 69.277344 56.246094 L 69.804688 56.769531 L 69.804688 60.214844 Z M 69.277344 56.132812 L 65.789062 56.132812 L 65.300781 55.644531 L 65.300781 52.128906 L 65.789062 51.636719 L 69.277344 51.636719 L 69.804688 52.164062 L 69.804688 55.609375 Z M 69.277344 51.527344 L 65.789062 51.527344 L 65.300781 51.039062 L 65.300781 47.523438 L 65.789062 47.03125 L 69.273438 47.03125 L 69.804688 47.558594 L 69.804688 51.003906 Z M 69.277344 46.921875 L 65.789062 46.921875 L 65.300781 46.433594 L 65.300781 42.914062 L 65.789062 42.425781 L 69.277344 42.425781 L 69.804688 42.953125 L 69.804688 46.398438 Z M 69.277344 42.316406 L 65.789062 42.316406 L 65.300781 41.828125 L 65.300781 38.308594 L 65.789062 37.820312 L 69.277344 37.820312 L 69.804688 38.347656 L 69.804688 41.789062 Z M 69.277344 37.710938 L 65.789062 37.710938 L 65.300781 37.222656 L 65.300781 33.703125 L 65.789062 33.214844 L 69.277344 33.214844 L 69.804688 33.742188 L 69.804688 37.183594 Z M 69.277344 33.105469 L 65.789062 33.105469 L 65.300781 32.617188 L 65.300781 29.097656 L 65.789062 28.609375 L 69.273438 28.609375 L 69.804688 29.136719 L 69.804688 32.578125 Z M 69.277344 28.5 L 65.789062 28.5 L 65.300781 28.007812 L 65.300781 24.492188 L 65.789062 24.003906 L 69.277344 24.003906 L 69.804688 24.53125 L 69.804688 27.96875 Z M 69.277344 23.894531 L 65.789062 23.894531 L 65.300781 23.402344 L 65.300781 19.886719 L 65.789062 19.398438 L 69.277344 19.398438 L 69.804688 19.925781 L 69.804688 23.375 Z M 69.277344 19.289062 L 65.789062 19.289062 L 65.300781 18.796875 L 65.300781 15.277344 L 65.789062 14.789062 L 69.277344 14.789062 L 69.804688 15.316406 L 69.804688 18.757812 Z M 69.277344 14.679688 L 65.789062 14.679688 L 65.300781 14.191406 L 65.300781 10.679688 L 65.789062 10.191406 L 69.277344 10.191406 L 69.804688 10.71875 L 69.804688 14.160156 Z M 69.277344 10.074219 L 65.789062 10.074219 L 65.300781 9.585938 L 65.300781 6.070312 L 65.789062 5.582031 L 69.273438 5.582031 L 69.804688 6.109375 L 69.804688 9.550781 Z M 69.277344 10.074219 " fill-opacity="1" fill-rule="nonzero"/></g></g></g></g></g></svg>